<svg xmlns="http://www.w3.org/2000/svg" width="12.384" height="17.344" viewBox="0 0 12.384 17.344"><g transform="translate(-16.73 -262.208)"><path d="M17.572,262.208a.84.84,0,0,0-.842.842v15.66a.84.84,0,0,0,.842.842h10.7a.84.84,0,0,0,.842-.842V263.05a.84.84,0,0,0-.842-.842Zm1.218,1.564h8.264a.649.649,0,0,1,.65.65V276a.649.649,0,0,1-.65.65H18.79a.649.649,0,0,1-.65-.65V264.422a.649.649,0,0,1,.65-.65Zm4.132,13.517a.758.758,0,1,1-.758.758.758.758,0,0,1,.758-.758Z" transform="translate(0)" fill="#fff"/></g></svg>