<svg xmlns="http://www.w3.org/2000/svg" width="17.823" height="17.34" viewBox="0 0 17.823 17.34"><path d="M1.565,0A1.562,1.562,0,0,0,0,1.565V7.277A1.562,1.562,0,0,0,1.565,8.843H3.13A1.562,1.562,0,0,0,4.7,7.278V1.565A1.562,1.562,0,0,0,3.13,0ZM5.374.473a2.212,2.212,0,0,1,.194.907V7.463A2.243,2.243,0,0,1,3.333,9.7H1.666a2.212,2.212,0,0,1-.832-.162v1.991a1.622,1.622,0,0,0,1.626,1.626h1.1V17.34H15.271V13.153H16.2a1.622,1.622,0,0,0,1.626-1.626V2.1A1.622,1.622,0,0,0,16.2.473ZM7.669,2.6h7.365V4.5H7.669ZM8.775,6.173a.727.727,0,1,1-.727.727.727.727,0,0,1,.727-.727Zm2.576,0a.727.727,0,1,1-.727.727.727.727,0,0,1,.727-.727Zm2.576,0A.727.727,0,1,1,13.2,6.9a.727.727,0,0,1,.727-.727ZM8.775,8.815a.727.727,0,1,1-.727.727.727.727,0,0,1,.727-.727Zm2.576,0a.727.727,0,1,1-.727.727.727.727,0,0,1,.727-.727Zm2.576,0a.727.727,0,1,1-.727.727.727.727,0,0,1,.727-.727ZM4.622,12h9.587v4.272H4.622Zm2.212.921v.683H12v-.683Zm0,1.519v.683H12v-.683Z" transform="translate(0)" fill="#fff"/></svg>